<svg width="500" height="500" viewBox="0 0 500 500" fill="none" xmlns="http://www.w3.org/2000/svg">
  <path
    d="M53.2259 182.665H445.774C454.737 182.665 462 190.804 462 197.399V203.012C462 211.151 454.733 217.745 445.774 217.745H53.2259C44.2629 217.745 37 209.607 37 203.012V197.399C37 189.26 44.2668 182.665 53.2259 182.665Z"
    fill="black" />
  <path
    d="M101.127 156C108.383 156 114.264 162.588 114.264 167.928V240.901C114.264 247.489 108.382 252.829 101.127 252.829C93.8725 252.829 87.9908 246.241 87.9908 240.901V167.928C87.9908 161.34 93.8725 156 101.127 156Z"
    fill="black" />
  <path
    d="M367.729 159.511C374.984 159.511 380.866 166.099 380.866 171.439V244.412C380.866 251 374.984 256.34 367.729 256.34C360.474 256.34 354.592 249.752 354.592 244.412V171.439C354.592 164.851 360.474 159.511 367.729 159.511Z"
    fill="black" />
  <path
    d="M210.861 205.106C203.583 205.106 197.713 210.436 197.713 217.045V332.113C197.713 338.722 203.583 344.039 210.861 344.039H275.758C283.036 344.039 288.906 338.722 288.906 332.113V217.045C288.906 210.436 283.036 205.106 275.758 205.106H210.861ZM244.079 226.858C251.358 226.858 257.213 232.189 257.213 238.797V311.759C257.213 318.368 251.358 323.698 244.079 323.698C236.801 323.698 230.946 318.368 230.946 311.759V238.797C230.946 232.188 236.801 226.858 244.079 226.858Z"
    fill="black" />
</svg>